# Blender v2.78 (sub 0) OBJ File: '5.blend'
# www.blender.org
mtllib Phone_01.mtl
o Phone_01_Cube.037
v -2.452786 0.513340 0.180398
v -2.003839 0.064393 0.180398
v -2.392639 0.288866 0.180398
v -2.228313 0.124540 0.180398
v -2.003839 9.825951 0.180399
v -2.452786 9.377005 0.180399
v -2.228313 9.765804 0.180399
v -2.392639 9.601478 0.180399
v 2.003839 0.064393 0.180398
v 2.452786 0.513340 0.180398
v 2.228313 0.124540 0.180398
v 2.392639 0.288866 0.180398
v 2.452786 9.377005 0.180399
v 2.003839 9.825951 0.180399
v 2.392639 9.601478 0.180399
v 2.228313 9.765804 0.180399
v -1.974720 0.285577 -0.180399
v -2.003839 0.064393 0.040786
v -1.995310 0.129176 -0.115615
v -2.231602 0.542459 -0.180399
v -2.452786 0.513340 0.040786
v -2.388002 0.521869 -0.115615
v -2.113819 0.322848 -0.180399
v -2.228313 0.124540 0.040786
v -2.194778 0.182623 -0.115615
v -2.194330 0.403360 -0.180399
v -2.392639 0.288866 0.040786
v -2.334555 0.322401 -0.115615
v -2.231602 9.347885 -0.180398
v -2.452786 9.377005 0.040786
v -2.388002 9.368476 -0.115615
v -1.974720 9.604767 -0.180398
v -2.003839 9.825951 0.040786
v -1.995310 9.761168 -0.115615
v -2.194330 9.486984 -0.180398
v -2.392639 9.601478 0.040786
v -2.334555 9.567944 -0.115615
v -2.113819 9.567496 -0.180398
v -2.228313 9.765804 0.040786
v -2.194778 9.707721 -0.115615
v 2.231602 0.542459 -0.180399
v 2.452786 0.513340 0.040786
v 2.388002 0.521869 -0.115615
v 1.974720 0.285577 -0.180399
v 2.003839 0.064393 0.040786
v 1.995310 0.129176 -0.115615
v 2.194330 0.403360 -0.180399
v 2.392639 0.288866 0.040786
v 2.334555 0.322401 -0.115615
v 2.113819 0.322848 -0.180399
v 2.228313 0.124540 0.040786
v 2.194778 0.182623 -0.115615
v 1.974720 9.604767 -0.180398
v 2.003839 9.825951 0.040786
v 1.995310 9.761168 -0.115615
v 2.231602 9.347885 -0.180398
v 2.452786 9.377005 0.040786
v 2.388002 9.368476 -0.115615
v 2.113819 9.567496 -0.180398
v 2.228313 9.765804 0.040786
v 2.194778 9.707721 -0.115615
v 2.194330 9.486984 -0.180398
v 2.392639 9.601478 0.040786
v 2.334555 9.567944 -0.115615
v -2.349836 0.583466 0.180398
v -2.349836 9.306878 0.180399
v 2.349836 0.583466 0.180398
v 2.349836 9.306878 0.180399
v -0.499546 9.451944 0.135848
v -0.499546 9.451944 0.180399
v 0.499546 9.451944 0.180399
v 0.499494 9.524382 0.180399
v -0.499494 9.524382 0.180399
v 0.499546 9.451944 0.135848
v 0.499494 9.524382 0.135848
v -0.499494 9.524382 0.135848
vn -0.9659 -0.2588 0.0000
vn 0.2588 -0.9659 0.0000
vn 0.0000 0.0000 1.0000
vn -0.7071 -0.7071 0.0000
vn -0.2588 0.9659 0.0000
vn 0.0000 -1.0000 -0.0000
vn -0.9659 0.2588 0.0000
vn -1.0000 0.0000 0.0000
vn -0.7071 0.7071 0.0000
vn 0.9659 -0.2588 0.0000
vn 0.0000 1.0000 0.0000
vn 0.7071 0.7071 0.0000
vn 0.9659 0.2588 0.0000
vn 0.7071 -0.7071 0.0000
vn 0.2588 0.9659 0.0000
vn 1.0000 0.0000 0.0000
vn -0.2588 -0.9659 0.0000
vn -0.0990 -0.3696 -0.9239
vn -0.2391 -0.8924 -0.3827
vn -0.2706 -0.2706 -0.9239
vn -0.6533 -0.6533 -0.3827
vn -0.3696 -0.0990 -0.9239
vn -0.8924 -0.2391 -0.3827
vn -0.0990 0.3696 -0.9239
vn -0.2391 0.8924 -0.3827
vn -0.2706 0.2706 -0.9239
vn -0.6533 0.6533 -0.3827
vn -0.3696 0.0990 -0.9239
vn -0.8924 0.2391 -0.3827
vn 0.3696 0.0990 -0.9239
vn 0.8924 0.2391 -0.3827
vn 0.2706 0.2706 -0.9239
vn 0.6533 0.6533 -0.3827
vn 0.0990 0.3696 -0.9239
vn 0.2391 0.8924 -0.3827
vn 0.0990 -0.3696 -0.9239
vn 0.2391 -0.8924 -0.3827
vn 0.2706 -0.2706 -0.9239
vn 0.6533 -0.6533 -0.3827
vn 0.3696 -0.0990 -0.9239
vn 0.8924 -0.2391 -0.3827
vn -0.9239 0.0000 -0.3827
vn -0.3827 0.0000 -0.9239
vn 0.0000 0.9239 -0.3827
vn 0.0000 0.3827 -0.9239
vn 0.9239 0.0000 -0.3827
vn 0.3827 0.0000 -0.9239
vn 0.0000 -0.9239 -0.3827
vn 0.0000 -0.3827 -0.9239
vn 0.0000 0.0000 -1.0000
vn -1.0000 -0.0007 0.0000
vn 1.0000 -0.0007 0.0000
usemtl 1A1A1A
s off
f 27//1 3//1 1//1 21//1
f 9//2 45//2 51//2 11//2
f 2//3 9//3 11//3 4//3
f 24//4 4//4 3//4 27//4
f 5//5 33//5 39//5 7//5
f 45//6 9//6 2//6 18//6
f 8//7 36//7 30//7 6//7
f 21//8 1//8 6//8 30//8
f 7//9 39//9 36//9 8//9
f 12//10 48//10 42//10 10//10
f 33//11 5//11 14//11 54//11
f 15//12 63//12 60//12 16//12
f 13//13 57//13 63//13 15//13
f 11//14 51//14 48//14 12//14
f 16//15 60//15 54//15 14//15
f 57//16 13//16 10//16 42//16
f 18//17 2//17 4//17 24//17
f 23//18 17//18 19//18 25//18
f 25//19 19//19 18//19 24//19
f 26//20 23//20 25//20 28//20
f 28//21 25//21 24//21 27//21
f 20//22 26//22 28//22 22//22
f 22//23 28//23 27//23 21//23
f 32//24 38//24 40//24 34//24
f 34//25 40//25 39//25 33//25
f 38//26 35//26 37//26 40//26
f 40//27 37//27 36//27 39//27
f 35//28 29//28 31//28 37//28
f 37//29 31//29 30//29 36//29
f 56//30 62//30 64//30 58//30
f 58//31 64//31 63//31 57//31
f 62//32 59//32 61//32 64//32
f 64//33 61//33 60//33 63//33
f 59//34 53//34 55//34 61//34
f 61//35 55//35 54//35 60//35
f 44//36 50//36 52//36 46//36
f 46//37 52//37 51//37 45//37
f 50//38 47//38 49//38 52//38
f 52//39 49//39 48//39 51//39
f 47//40 41//40 43//40 49//40
f 49//41 43//41 42//41 48//41
f 21//42 30//42 31//42 22//42
f 22//43 31//43 29//43 20//43
f 33//44 54//44 55//44 34//44
f 34//45 55//45 53//45 32//45
f 57//46 42//46 43//46 58//46
f 58//47 43//47 41//47 56//47
f 45//48 18//48 19//48 46//48
f 46//49 19//49 17//49 44//49
f 29//50 35//50 38//50 32//50 53//50 59//50 62//50 56//50 41//50 47//50 50//50 44//50 17//50 23//50 26//50 20//50
f 4//3 11//3 12//3 3//3
f 3//3 12//3 10//3 1//3
f 10//3 13//3 68//3 67//3
f 8//3 15//3 16//3 7//3
f 7//3 16//3 14//3 5//3
f 6//3 1//3 65//3 66//3
f 1//3 10//3 67//3 65//3
f 13//3 6//3 66//3 68//3
f 13//3 15//3 72//3 71//3
f 15//3 8//3 73//3 72//3
f 8//3 6//3 70//3 73//3
f 69//3 74//3 75//3 76//3
f 72//6 73//6 76//6 75//6
f 6//3 13//3 71//3 70//3
f 70//11 71//11 74//11 69//11
f 71//51 72//51 75//51 74//51
f 73//52 70//52 69//52 76//52
usemtl 039BE5
f 65//3 67//3 68//3
usemtl F44336
f 65//3 68//3 66//3
